<svg width="89" height="90" viewBox="0 0 89 90" fill="none" xmlns="http://www.w3.org/2000/svg">
<g opacity="0.5">
<path d="M20.6299 11.1094C15.6513 11.1094 11.6153 15.1454 11.6153 20.124V68.664C11.6153 73.6427 15.6513 77.6786 20.6299 77.6786H67.7831C72.7617 77.6786 76.7977 73.6427 76.7977 68.664V30.1787C76.7977 29.2213 77.5738 28.4451 78.5312 28.4451C79.4887 28.4451 80.2648 29.2213 80.2648 30.1787V68.664C80.2648 75.5575 74.6766 81.1458 67.7831 81.1458H20.6299C13.7365 81.1458 8.14819 75.5575 8.14819 68.664V20.124C8.14819 13.2305 13.7365 7.64227 20.6299 7.64227H56.5487C57.5061 7.64227 58.2823 8.41842 58.2823 9.37585C58.2823 10.3333 57.5061 11.1094 56.5487 11.1094H20.6299Z" fill="#333333"/>
<path d="M29.8438 40.2043C30.1563 40.2043 30.4147 40.3065 30.619 40.5108C30.8354 40.7031 30.9436 40.9555 30.9436 41.268C30.9436 41.5685 30.8354 41.8209 30.619 42.0252C30.4147 42.2175 30.1563 42.3137 29.8438 42.3137H23.9843C23.6718 42.3137 23.4074 42.2115 23.191 42.0072C22.9867 41.7909 22.8845 41.5264 22.8845 41.2139V30.7931C22.8845 30.4806 22.9927 30.2221 23.2091 30.0178C23.4254 29.8015 23.7019 29.6933 24.0384 29.6933C24.3389 29.6933 24.5973 29.8015 24.8136 30.0178C25.03 30.2221 25.1382 30.4806 25.1382 30.7931V40.2043H29.8438Z" fill="#333333"/>
<path d="M41.3336 40.2403C41.6461 40.2403 41.9046 40.3485 42.1089 40.5649C42.3252 40.7692 42.4334 41.0096 42.4334 41.286C42.4334 41.5865 42.3252 41.8329 42.1089 42.0252C41.9046 42.2175 41.6461 42.3137 41.3336 42.3137H35.2939C34.9814 42.3137 34.7169 42.2115 34.5006 42.0072C34.2963 41.7909 34.1941 41.5264 34.1941 41.2139V30.7931C34.1941 30.4806 34.2963 30.2221 34.5006 30.0178C34.7169 29.8015 34.9814 29.6933 35.2939 29.6933H41.3336C41.6461 29.6933 41.9046 29.7955 42.1089 29.9998C42.3252 30.1921 42.4334 30.4445 42.4334 30.757C42.4334 31.0575 42.3312 31.3039 42.1269 31.4962C41.9226 31.6765 41.6582 31.7666 41.3336 31.7666H36.4477V34.8316H40.5223C40.8348 34.8316 41.0932 34.9338 41.2976 35.1381C41.5139 35.3304 41.6221 35.5828 41.6221 35.8953C41.6221 36.1958 41.5199 36.4422 41.3156 36.6345C41.1113 36.8148 40.8468 36.905 40.5223 36.905H36.4477V40.2403H41.3336Z" fill="#333333"/>
<path d="M53.9907 29.6933C54.3153 29.6933 54.5797 29.7894 54.784 29.9818C54.9883 30.1741 55.0905 30.4265 55.0905 30.739C55.0905 31.0515 54.9883 31.3039 54.784 31.4962C54.5797 31.6765 54.3153 31.7666 53.9907 31.7666H51.1601V41.2139C51.1601 41.5264 51.046 41.7909 50.8176 42.0072C50.5892 42.2115 50.3068 42.3137 49.9702 42.3137C49.6337 42.3137 49.3572 42.2115 49.1409 42.0072C48.9245 41.7909 48.8164 41.5264 48.8164 41.2139V31.7666H45.9858C45.6613 31.7666 45.3968 31.6705 45.1925 31.4782C44.9882 31.2859 44.886 31.0335 44.886 30.721C44.886 30.4205 44.9882 30.1741 45.1925 29.9818C45.4088 29.7894 45.6733 29.6933 45.9858 29.6933H53.9907Z" fill="#333333"/>
<path d="M62.2255 42.494C61.3601 42.494 60.5908 42.3858 59.9177 42.1695C59.2447 41.9531 58.6136 41.5865 58.0247 41.0697C57.7002 40.7812 57.5379 40.4627 57.5379 40.1141C57.5379 39.8377 57.6401 39.5973 57.8444 39.393C58.0487 39.1766 58.2951 39.0685 58.5836 39.0685C58.812 39.0685 59.0163 39.1406 59.1966 39.2848C59.6773 39.6814 60.1461 39.9699 60.6028 40.1502C61.0596 40.3305 61.6005 40.4206 62.2255 40.4206C62.8986 40.4206 63.4755 40.2704 63.9563 39.9699C64.4491 39.6694 64.6955 39.2968 64.6955 38.8521C64.6955 38.3112 64.4551 37.8905 63.9743 37.5901C63.4935 37.2776 62.7303 37.0432 61.6846 36.8869C59.0523 36.5023 57.7362 35.2763 57.7362 33.209C57.7362 32.4518 57.9345 31.7967 58.3312 31.2438C58.7278 30.6789 59.2687 30.2522 59.9538 29.9637C60.6389 29.6632 61.4021 29.513 62.2435 29.513C63.0007 29.513 63.7099 29.6272 64.3709 29.8556C65.044 30.0839 65.6029 30.3844 66.0477 30.757C66.3962 31.0335 66.5705 31.352 66.5705 31.7126C66.5705 31.989 66.4683 32.2354 66.264 32.4518C66.0597 32.6561 65.8193 32.7582 65.5428 32.7582C65.3625 32.7582 65.2003 32.7042 65.056 32.596C64.7435 32.3436 64.3048 32.1152 63.7399 31.9109C63.187 31.6945 62.6882 31.5864 62.2435 31.5864C61.4863 31.5864 60.8973 31.7306 60.4766 32.0191C60.068 32.2955 59.8637 32.6621 59.8637 33.1188C59.8637 33.6357 60.074 34.0263 60.4947 34.2907C60.9274 34.5552 61.6005 34.7715 62.5139 34.9398C63.5476 35.1201 64.3709 35.3544 64.9839 35.6429C65.6089 35.9194 66.0777 36.304 66.3902 36.7968C66.7027 37.2776 66.859 37.9206 66.859 38.7259C66.859 39.4831 66.6426 40.1502 66.2099 40.7271C65.7892 41.2921 65.2243 41.7308 64.5152 42.0433C63.806 42.3438 63.0428 42.494 62.2255 42.494Z" fill="#333333"/>
<path d="M31.4949 47.7224C31.8194 47.7224 32.0838 47.8186 32.2881 48.0109C32.4925 48.2032 32.5946 48.4556 32.5946 48.7681C32.5946 49.0806 32.4925 49.3331 32.2881 49.5254C32.0838 49.7057 31.8194 49.7958 31.4949 49.7958H28.6643V59.2431C28.6643 59.5556 28.5501 59.82 28.3217 60.0364C28.0934 60.2407 27.8109 60.3429 27.4744 60.3429C27.1378 60.3429 26.8614 60.2407 26.645 60.0364C26.4287 59.82 26.3205 59.5556 26.3205 59.2431V49.7958H23.4899C23.1654 49.7958 22.901 49.6996 22.6966 49.5073C22.4923 49.315 22.3901 49.0626 22.3901 48.7501C22.3901 48.4496 22.4923 48.2032 22.6966 48.0109C22.913 47.8186 23.1774 47.7224 23.4899 47.7224H31.4949Z" fill="#333333"/>
<path d="M42.8126 58.2695C43.1251 58.2695 43.3835 58.3777 43.5878 58.594C43.8042 58.7984 43.9124 59.0388 43.9124 59.3152C43.9124 59.6157 43.8042 59.8621 43.5878 60.0544C43.3835 60.2467 43.1251 60.3429 42.8126 60.3429H36.7728C36.4603 60.3429 36.1959 60.2407 35.9795 60.0364C35.7752 59.82 35.673 59.5556 35.673 59.2431V48.8222C35.673 48.5097 35.7752 48.2513 35.9795 48.047C36.1959 47.8306 36.4603 47.7224 36.7728 47.7224H42.8126C43.1251 47.7224 43.3835 47.8246 43.5878 48.0289C43.8042 48.2213 43.9124 48.4737 43.9124 48.7862C43.9124 49.0867 43.8102 49.3331 43.6059 49.5254C43.4015 49.7057 43.1371 49.7958 42.8126 49.7958H37.9267V52.8608H42.0013C42.3138 52.8608 42.5722 52.9629 42.7765 53.1673C42.9929 53.3596 43.1011 53.612 43.1011 53.9245C43.1011 54.225 42.9989 54.4714 42.7946 54.6637C42.5902 54.844 42.3258 54.9341 42.0013 54.9341H37.9267V58.2695H42.8126Z" fill="#333333"/>
<path d="M54.1355 58.2334C54.448 58.2334 54.7064 58.3356 54.9108 58.5399C55.1271 58.7323 55.2353 58.9847 55.2353 59.2972C55.2353 59.5977 55.1271 59.8501 54.9108 60.0544C54.7064 60.2467 54.448 60.3429 54.1355 60.3429H48.276C47.9635 60.3429 47.6991 60.2407 47.4828 60.0364C47.2784 59.82 47.1763 59.5556 47.1763 59.2431V48.8222C47.1763 48.5097 47.2844 48.2513 47.5008 48.047C47.7171 47.8306 47.9936 47.7224 48.3301 47.7224C48.6306 47.7224 48.889 47.8306 49.1054 48.047C49.3217 48.2513 49.4299 48.5097 49.4299 48.8222V58.2334H54.1355Z" fill="#333333"/>
<path d="M65.4451 58.2334C65.7576 58.2334 66.016 58.3356 66.2203 58.5399C66.4367 58.7323 66.5449 58.9847 66.5449 59.2972C66.5449 59.5977 66.4367 59.8501 66.2203 60.0544C66.016 60.2467 65.7576 60.3429 65.4451 60.3429H59.5856C59.2731 60.3429 59.0087 60.2407 58.7923 60.0364C58.588 59.82 58.4858 59.5556 58.4858 59.2431V48.8222C58.4858 48.5097 58.594 48.2513 58.8104 48.047C59.0267 47.8306 59.3032 47.7224 59.6397 47.7224C59.9402 47.7224 60.1986 47.8306 60.4149 48.047C60.6313 48.2513 60.7395 48.5097 60.7395 48.8222V58.2334H65.4451Z" fill="#333333"/>
<circle cx="72.9332" cy="15.0107" r="7.3106" fill="#333333"/>
</g>
</svg>
