<svg width="16" height="14" viewBox="0 0 16 14" fill="none" xmlns="http://www.w3.org/2000/svg">
<path fill-rule="evenodd" clip-rule="evenodd" d="M16 11.9068V2.16933C16 1.60982 15.5484 1.15828 14.9988 1.14847H14.8319V0.579141C14.8319 0.284662 14.6061 0.0294479 14.3018 0H14.2626L13.2417 0.196319V4.1816C13.119 4.04908 12.9938 3.91655 12.8687 3.78403C12.7435 3.65152 12.6184 3.51901 12.4957 3.3865L12.319 3.2L12.1423 3.3865L11.6711 3.88712L11.6711 3.88714C11.5828 3.97548 11.4846 4.07363 11.3963 4.17178V0.549693L8.72636 1.06012H8.70673C8.3828 1.06012 8.11777 1.32515 8.11777 1.64908V12.6233C8.11777 12.9276 8.34354 13.173 8.64783 13.2025H8.67728L10.2969 12.8982V12.9178H14.9889C15.5484 12.9178 16 12.4663 16 11.9068ZM15.5092 2.16933V11.9068C15.5092 12.2012 15.2834 12.427 14.9889 12.4368H12.7313L14.2135 12.1522H14.2331C14.557 12.1522 14.8221 11.8871 14.8221 11.5632V1.64908H14.9889C15.2736 1.64908 15.5092 1.88466 15.5092 2.16933ZM14.3411 0.588957V11.5632C14.3411 11.6123 14.292 11.6515 14.2429 11.6515H14.1742L8.66746 12.7117C8.6282 12.7018 8.60857 12.6626 8.60857 12.6233V1.6589C8.60857 1.6 8.65765 1.56074 8.70673 1.56074H8.73618L10.8957 1.14847V4.46626C10.8957 4.62331 10.9938 4.76074 11.1411 4.81963C11.2883 4.87853 11.4454 4.83927 11.5534 4.73129L12.0245 4.23068C12.0736 4.17669 12.1227 4.12515 12.1718 4.07362C12.2208 4.02209 12.2699 3.97055 12.319 3.91657C12.5742 4.17176 12.8196 4.43677 13.065 4.70178L13.065 4.70184L13.0945 4.73129L13.1239 4.76074L13.1337 4.77055C13.2417 4.84908 13.3791 4.86871 13.4969 4.81963C13.6442 4.76074 13.7423 4.62331 13.7423 4.46626V0.608589L14.2822 0.500614C14.3116 0.51043 14.3411 0.549693 14.3411 0.588957ZM7.76442 12.614V1.64958C7.76442 1.33547 7.49939 1.07044 7.18528 1.07044L1.62945 0.0103144H1.59018C1.28589 0.0397623 1.06012 0.285161 1.06012 0.589456V1.15878H1.01104C0.451534 1.15878 0 1.61031 0 2.16982V11.8974C0 12.4569 0.451534 12.9085 1.01104 12.9085H5.70307L7.20491 13.1931H7.23436C7.53865 13.1637 7.76442 12.9183 7.76442 12.614ZM7.27362 1.64958V12.6238C7.27362 12.6631 7.25399 12.6925 7.21473 12.7122L1.73742 11.6619H1.64908C1.59018 11.6619 1.55092 11.6128 1.55092 11.5637V0.589456C1.55092 0.550192 1.57055 0.510928 1.60982 0.501112L7.08712 1.55142H7.17546C7.23436 1.55142 7.27362 1.6005 7.27362 1.64958ZM3.14111 12.4275H1.01104C0.726381 12.4275 0.490798 12.2017 0.490798 11.9073V2.16001C0.490798 1.87535 0.726381 1.63976 1.01104 1.63976H1.06012V11.5539C1.06012 11.8778 1.32515 12.1428 1.64908 12.1428L3.14111 12.4275Z" fill="#F5CD79"/>
</svg>
