<svg width="26" height="23" viewBox="0 0 26 23" fill="none" xmlns="http://www.w3.org/2000/svg">
<path d="M9.48837 19.5698L15.0349 22.6628C15.314 22.814 15.5465 22.9302 15.8372 23V3.68605L10.4419 0.430233C10.093 0.22093 9.76744 0.0697674 9.48837 0V19.5698ZM0.5 21.1279C0.5 22.1395 1.13953 22.6977 2.06977 22.6977C2.40698 22.6977 2.75581 22.593 3.15116 22.3837L7.77907 19.8721V0.127907C7.52326 0.232558 7.22093 0.360465 6.90698 0.546512L1.65116 3.53488C0.860465 3.97674 0.5 4.60465 0.5 5.48837V21.1279ZM17.5349 22.9419C17.6744 22.907 17.814 22.8488 17.9419 22.7558L23.8256 19.4302C24.6395 18.9767 25.0116 18.3605 25.0116 17.4767V1.9186C25.0116 0.860465 24.3605 0.337209 23.3721 0.337209C23.0116 0.337209 22.6279 0.44186 22.2209 0.662791L17.5349 3.26744V22.9419Z" fill="#8E8E93"/>
</svg>
