<svg width="26" height="22" viewBox="0 0 26 22" fill="none" xmlns="http://www.w3.org/2000/svg">
<path d="M0.471802 10.3576C0.471802 10.8198 0.834938 11.249 1.44016 11.249C1.73728 11.249 1.99037 11.0839 2.22146 10.8968L12.6094 2.18157C12.8624 1.96149 13.1596 1.96149 13.4127 2.18157L23.7895 10.8968C24.0206 11.0839 24.2737 11.249 24.5708 11.249C25.11 11.249 25.5282 10.9188 25.5282 10.3906C25.5282 10.0605 25.4182 9.81843 25.1761 9.62036L22.26 7.16644V2.95186C22.26 2.48968 21.9629 2.19257 21.5007 2.19257H20.2792C19.8281 2.19257 19.5199 2.48968 19.5199 2.95186V4.86657L14.337 0.519945C13.5227 -0.173315 12.5103 -0.173315 11.685 0.519945L0.834938 9.62036C0.592847 9.82944 0.471802 10.0935 0.471802 10.3576ZM3.77304 19.6671C3.77304 21.1307 4.66437 22 6.14993 22H19.8611C21.3466 22 22.249 21.1307 22.249 19.6671V11.5351L13.6327 4.31637C13.2366 3.97524 12.7634 3.98624 12.3673 4.31637L3.77304 11.5351V19.6671ZM15.7015 20.2283H10.3095V13.4278C10.3095 12.9436 10.6286 12.6245 11.1128 12.6245H14.9092C15.3934 12.6245 15.7015 12.9436 15.7015 13.4278V20.2283Z" fill="#333333"/>
</svg>
