<svg width="22" height="22" viewBox="0 0 22 22" fill="none" xmlns="http://www.w3.org/2000/svg">
<path d="M10.9947 21.9894C17.0237 21.9894 22 17.013 22 10.9947C22 4.97632 17.013 0 10.984 0C4.96568 0 0 4.97632 0 10.9947C0 17.013 4.97632 21.9894 10.9947 21.9894ZM10.984 12.7279C8.89995 12.7173 7.28371 10.9734 7.28371 8.66602C7.26245 6.49686 8.91058 4.68922 10.984 4.68922C13.0575 4.68922 14.6844 6.49686 14.6844 8.66602C14.6844 10.9734 13.0681 12.7492 10.984 12.7279ZM10.984 20.1711C8.60222 20.1711 6.07153 19.1822 4.46592 17.4596C5.68874 15.6307 8.1131 14.5674 10.984 14.5674C13.8231 14.5674 16.2687 15.6095 17.5022 17.4596C15.8966 19.1822 13.3659 20.1711 10.984 20.1711Z" fill="#8E8E93"/>
</svg>
