<svg width="180" height="180" viewBox="0 0 180 180" fill="none" xmlns="http://www.w3.org/2000/svg">
<path d="M137.812 0H42.1875C18.888 0 0 18.888 0 42.1875V137.812C0 161.112 18.888 180 42.1875 180H137.812C161.112 180 180 161.112 180 137.812V42.1875C180 18.888 161.112 0 137.812 0Z" fill="#333333"/>
<path d="M45.695 27.8395C36.3579 27.8395 28.7884 35.409 28.7884 44.7462V135.782C28.7884 145.12 36.3579 152.689 45.695 152.689H134.13C143.468 152.689 151.037 145.12 151.037 135.782V63.6037C151.037 61.8082 152.493 60.3524 154.288 60.3524C156.084 60.3524 157.54 61.8082 157.54 63.6037V135.782C157.54 148.711 147.059 159.192 134.13 159.192H45.695C32.7665 159.192 22.2859 148.711 22.2859 135.782V44.7462C22.2859 31.8176 32.7665 21.3369 45.695 21.3369H113.06C114.856 21.3369 116.312 22.7926 116.312 24.5882C116.312 26.3839 114.856 27.8395 113.06 27.8395H45.695Z" fill="#ECECEC"/>
<path d="M62.9754 82.4066C63.5614 82.4066 64.0462 82.5982 64.4294 82.9814C64.8351 83.3421 65.038 83.8153 65.038 84.4017C65.038 84.9653 64.8351 85.4385 64.4294 85.8217C64.0462 86.1824 63.5614 86.3627 62.9754 86.3627H51.9862C51.4002 86.3627 50.9041 86.1711 50.4984 85.7879C50.1152 85.3822 49.9236 84.8862 49.9236 84.3001V64.7561C49.9236 64.17 50.1265 63.6852 50.5322 63.302C50.9379 62.8963 51.4564 62.6934 52.0875 62.6934C52.651 62.6934 53.1358 62.8963 53.5415 63.302C53.9472 63.6852 54.1501 64.17 54.1501 64.7561V82.4066H62.9754Z" fill="#ECECEC"/>
<path d="M84.5244 82.4741C85.1105 82.4741 85.5953 82.6769 85.9785 83.083C86.3842 83.4662 86.587 83.9169 86.587 84.4355C86.587 84.999 86.3842 85.461 85.9785 85.8217C85.5953 86.1824 85.1105 86.3627 84.5244 86.3627H73.1971C72.611 86.3627 72.115 86.1711 71.7093 85.7879C71.3261 85.3822 71.1345 84.8862 71.1345 84.3001V64.7561C71.1345 64.17 71.3261 63.6852 71.7093 63.302C72.115 62.8963 72.611 62.6934 73.1971 62.6934H84.5244C85.1105 62.6934 85.5953 62.885 85.9785 63.2682C86.3842 63.6289 86.587 64.1021 86.587 64.6882C86.587 65.2518 86.3954 65.7141 86.0122 66.0748C85.629 66.413 85.1333 66.5821 84.5244 66.5821H75.3609V72.3301H83.0029C83.5889 72.3301 84.0737 72.5217 84.4569 72.9049C84.8626 73.2656 85.0655 73.7392 85.0655 74.3252C85.0655 74.8888 84.8739 75.3507 84.4907 75.7114C84.1075 76.0496 83.6114 76.2187 83.0029 76.2187H75.3609V82.4741H84.5244Z" fill="#ECECEC"/>
<path d="M108.263 62.6934C108.872 62.6934 109.367 62.8738 109.75 63.2345C110.134 63.5952 110.325 64.0684 110.325 64.6545C110.325 65.2405 110.134 65.7141 109.75 66.0748C109.367 66.413 108.872 66.5821 108.263 66.5821H102.954V84.3001C102.954 84.8862 102.74 85.3822 102.312 85.7879C101.883 86.1711 101.354 86.3627 100.722 86.3627C100.091 86.3627 99.5727 86.1711 99.167 85.7879C98.7613 85.3822 98.5584 84.8862 98.5584 84.3001V66.5821H93.2495C92.641 66.5821 92.1449 66.4017 91.7617 66.041C91.3785 65.6803 91.1869 65.2068 91.1869 64.6207C91.1869 64.0571 91.3785 63.5952 91.7617 63.2345C92.1677 62.8738 92.6635 62.6934 93.2495 62.6934H108.263Z" fill="#ECECEC"/>
<path d="M123.707 86.7009C122.084 86.7009 120.641 86.4981 119.379 86.0924C118.117 85.6863 116.933 84.999 115.828 84.0298C115.22 83.4887 114.916 82.8914 114.916 82.2375C114.916 81.719 115.107 81.2682 115.49 80.885C115.874 80.4793 116.336 80.2765 116.877 80.2765C117.305 80.2765 117.688 80.4115 118.026 80.6822C118.928 81.4261 119.807 81.9672 120.664 82.305C121.52 82.6432 122.535 82.8123 123.707 82.8123C124.969 82.8123 126.051 82.5307 126.953 81.9672C127.877 81.4036 128.339 80.7047 128.339 79.8704C128.339 78.8562 127.889 78.0673 126.987 77.5037C126.085 76.9177 124.654 76.4779 122.692 76.185C117.756 75.4636 115.287 73.1644 115.287 69.287C115.287 67.8667 115.659 66.6383 116.403 65.6012C117.147 64.542 118.162 63.7415 119.447 63.2004C120.731 62.6368 122.163 62.3552 123.741 62.3552C125.161 62.3552 126.491 62.5693 127.731 62.9975C128.993 63.4261 130.041 63.9897 130.875 64.6882C131.529 65.2068 131.856 65.8041 131.856 66.4805C131.856 66.999 131.664 67.461 131.281 67.8667C130.898 68.2499 130.447 68.4415 129.929 68.4415C129.59 68.4415 129.286 68.3402 129.016 68.1374C128.43 67.6638 127.607 67.2356 126.547 66.8524C125.51 66.4467 124.575 66.2439 123.741 66.2439C122.321 66.2439 121.216 66.5142 120.427 67.0553C119.661 67.5738 119.277 68.2611 119.277 69.1179C119.277 70.0872 119.672 70.8198 120.461 71.3159C121.272 71.8116 122.535 72.2176 124.248 72.533C126.187 72.8712 127.731 73.3106 128.88 73.8517C130.052 74.3702 130.932 75.0917 131.518 76.0159C132.104 76.9177 132.397 78.1235 132.397 79.6338C132.397 81.0541 131.991 82.305 131.18 83.3871C130.391 84.4467 129.331 85.2694 128.001 85.8554C126.671 86.419 125.24 86.7009 123.707 86.7009Z" fill="#ECECEC"/>
<path d="M66.072 96.5067C66.6809 96.5067 67.1766 96.6871 67.5598 97.0478C67.943 97.4085 68.1346 97.882 68.1346 98.4681C68.1346 99.0541 67.943 99.5274 67.5598 99.8881C67.1766 100.226 66.6809 100.395 66.072 100.395H60.7634V118.114C60.7634 118.7 60.5493 119.196 60.1211 119.601C59.6925 119.985 59.1627 120.176 58.5317 120.176C57.9006 120.176 57.382 119.985 56.9763 119.601C56.5706 119.196 56.3678 118.7 56.3678 118.114V100.395H51.0588C50.4503 100.395 49.9542 100.215 49.571 99.8543C49.1878 99.4936 48.9962 99.0204 48.9962 98.4343C48.9962 97.8708 49.1878 97.4085 49.571 97.0478C49.9767 96.6871 50.4728 96.5067 51.0588 96.5067H66.072Z" fill="#ECECEC"/>
<path d="M87.2982 116.288C87.8843 116.288 88.3691 116.491 88.7523 116.896C89.158 117.279 89.3609 117.731 89.3609 118.249C89.3609 118.812 89.158 119.275 88.7523 119.635C88.3691 119.996 87.8843 120.176 87.2982 120.176H75.9709C75.3848 120.176 74.8888 119.985 74.4831 119.601C74.0999 119.196 73.9083 118.7 73.9083 118.114V98.5693C73.9083 97.9833 74.0999 97.4988 74.4831 97.1153C74.8888 96.7096 75.3848 96.5067 75.9709 96.5067H87.2982C87.8843 96.5067 88.3691 96.6983 88.7523 97.0815C89.158 97.4422 89.3609 97.9158 89.3609 98.5018C89.3609 99.0654 89.1693 99.5274 88.7861 99.8881C88.4029 100.226 87.9068 100.395 87.2982 100.395H78.1348V106.144H85.7767C86.3627 106.144 86.8475 106.335 87.2307 106.719C87.6364 107.079 87.8393 107.552 87.8393 108.139C87.8393 108.702 87.6477 109.164 87.2645 109.525C86.8813 109.863 86.3852 110.032 85.7767 110.032H78.1348V116.288H87.2982Z" fill="#ECECEC"/>
<path d="M108.534 116.22C109.12 116.22 109.605 116.411 109.988 116.795C110.394 117.155 110.597 117.629 110.597 118.215C110.597 118.779 110.394 119.252 109.988 119.635C109.605 119.996 109.12 120.176 108.534 120.176H97.5449C96.9588 120.176 96.4628 119.985 96.0571 119.601C95.6739 119.196 95.4823 118.7 95.4823 118.114V98.5693C95.4823 97.9833 95.6851 97.4988 96.0908 97.1153C96.4969 96.7096 97.0151 96.5067 97.6465 96.5067C98.21 96.5067 98.6945 96.7096 99.1002 97.1153C99.5063 97.4988 99.7091 97.9833 99.7091 98.5693V116.22H108.534Z" fill="#ECECEC"/>
<path d="M129.745 116.22C130.331 116.22 130.816 116.411 131.199 116.795C131.605 117.155 131.808 117.629 131.808 118.215C131.808 118.779 131.605 119.252 131.199 119.635C130.816 119.996 130.331 120.176 129.745 120.176H118.756C118.17 120.176 117.674 119.985 117.268 119.601C116.885 119.196 116.693 118.7 116.693 118.114V98.5693C116.693 97.9833 116.896 97.4988 117.302 97.1153C117.708 96.7096 118.226 96.5067 118.857 96.5067C119.421 96.5067 119.906 96.7096 120.311 97.1153C120.717 97.4988 120.92 97.9833 120.92 98.5693V116.22H129.745Z" fill="#ECECEC"/>
<path d="M143.789 48.8672C151.361 48.8672 157.5 42.7286 157.5 35.1562C157.5 27.5839 151.361 21.4453 143.789 21.4453C136.217 21.4453 130.078 27.5839 130.078 35.1562C130.078 42.7286 136.217 48.8672 143.789 48.8672Z" fill="#ECECEC"/>
</svg>
